Coordinates
version=1
nRows=29
nColumns=24
inDegrees=yes

Units are S.I. units (second, meters, Newtons, ...)
Angles are in degrees.

endheader
time	pelvis_tilt	pelvis_list	pelvis_rotation	pelvis_tx	pelvis_ty	pelvis_tz	hip_flexion_r	hip_adduction_r	hip_rotation_r	knee_angle_r	ankle_angle_r	subtalar_angle_r	mtp_angle_r	hip_flexion_l	hip_adduction_l	hip_rotation_l	knee_angle_l	ankle_angle_l	subtalar_angle_l	mtp_angle_l	lumbar_extension	lumbar_bending	lumbar_rotation
      1.06650000	      3.05027408	     -3.05785673	      4.98707501	      0.40983061	      1.04213502	      0.31677763	      2.21836167	      9.87940424	     -0.87834881	    -10.20905998	      2.90451430	    -13.27397011	      5.18745686	     10.36316913	     -6.11970202	     -2.20579217	    -54.30748653	      6.66194206	      4.82121433	      3.62052711	     -8.69585890	      2.62576141	     -4.18101057
      1.07066667	      3.12296859	     -2.94862197	      4.79844392	      0.41442368	      1.04263756	      0.31742203	      1.69677060	      9.81791791	     -0.69944406	     -9.93063497	      2.99344475	    -13.19532394	      5.14060587	     10.70822180	     -5.99859939	     -2.32070710	    -53.69930971	      7.11936234	      4.60846246	      3.55073604	     -8.84532315	      2.44026621	     -3.93605967
      1.07483333	      3.09409892	     -2.86664899	      4.64876974	      0.41903386	      1.04295248	      0.31798648	      1.29052551	      9.77140315	     -0.56452539	     -9.65034621	      3.04195606	    -13.07924925	      5.13195413	     11.17316379	     -5.87880472	     -2.35653030	    -53.07517771	      7.55846041	      4.42071637	      3.54131104	     -8.82790642	      2.30486549	     -3.90086502
      1.07900000	      3.15092232	     -2.74124584	      4.45705612	      0.42360956	      1.04339670	      0.31861237	      0.79564272	      9.68489244	     -0.37992313	     -9.39372939	      3.14443051	    -13.00878411	      5.09157340	     11.50475473	     -5.72637243	     -2.45244131	    -52.37270147	      7.93756626	      4.14641082	      3.47971778	     -8.96282106	      2.10530113	     -3.69028550
      1.08316667	      3.14972325	     -2.65522042	      4.29600801	      0.42819173	      1.04368785	      0.31921308	      0.36845565	      9.63400504	     -0.24274194	     -9.12949947	      3.20923706	    -12.91885134	      5.06651997	     11.91459115	     -5.61530917	     -2.51908427	    -51.67569243	      8.34282449	      3.90898939	      3.44424006	     -9.00091888	      1.92643001	     -3.59607145
      1.08733333	      3.18276035	     -2.54784606	      4.13412663	      0.43277712	      1.04404052	      0.31978827	     -0.10820732	      9.56068240	     -0.07313830	     -8.84481679	      3.28873168	    -12.84167938	      5.01042243	     12.25689541	     -5.47006404	     -2.56311046	    -50.90047037	      8.62378557	      3.62802355	      3.35793224	     -9.07064365	      1.75811166	     -3.39568599
      1.09150000	      3.15037379	     -2.46299683	      3.97914112	      0.43734661	      1.04421458	      0.32037050	     -0.49174115	      9.50499318	      0.06303383	     -8.59800029	      3.36476691	    -12.75793759	      4.98779278	     12.68034809	     -5.35217895	     -2.61025707	    -50.13468139	      8.98513482	      3.40101247	      3.32367097	     -9.07155459	      1.58792231	     -3.33583903
      1.09566667	      3.18221864	     -2.35112473	      3.81125334	      0.44190112	      1.04450672	      0.32093571	     -0.94688320	      9.42065233	      0.22607643	     -8.35364338	      3.45783831	    -12.69285113	      4.94328702	     12.99529189	     -5.19528650	     -2.64299638	    -49.27953817	      9.22278562	      3.08885207	      3.25045514	     -9.15465828	      1.42229028	     -3.18180638
      1.09983333	      3.14996773	     -2.27647253	      3.67070241	      0.44647216	      1.04461643	      0.32147956	     -1.33509495	      9.37296448	      0.36549329	     -8.09156899	      3.53804407	    -12.61286316	      4.91489394	     13.39822017	     -5.08209841	     -2.66655020	    -48.44533907	      9.49789573	      2.83971629	      3.20321670	     -9.14849142	      1.25589580	     -3.09967901
      1.10400000	      3.17007825	     -2.18628647	      3.52017178	      0.45102003	      1.04482326	      0.32199642	     -1.77660422	      9.30680516	      0.52103700	     -7.83706244	      3.58522573	    -12.55660948	      4.78048395	     13.70946081	     -4.93632332	     -2.65602992	    -47.52914891	      9.65840189	      2.48999998	      2.98531983	     -9.21550745	      1.12100870	     -2.85797551
      1.10816667	      3.15590867	     -2.09267296	      3.37226237	      0.45557811	      1.04493745	      0.32250915	     -2.17283259	      9.23315261	      0.66637420	     -7.60291217	      3.68569222	    -12.49384532	      4.65584139	     14.05101742	     -4.78852938	     -2.65544159	    -46.59091223	      9.81139060	      2.16389252	      2.77418079	     -9.23404406	      0.95642042	     -2.76411495
      1.11233333	      3.12747171	     -2.00853986	      3.22072781	      0.46013129	      1.04498377	      0.32304032	     -2.54430063	      9.16917473	      0.81619265	     -7.38675067	      3.81373906	    -12.44828822	      4.60794519	     14.39860839	     -4.65775820	     -2.66408634	    -45.62630951	      9.93743174	      1.87860810	      2.68397041	     -9.22869293	      0.80429148	     -2.70260134
      1.11650000	      3.10795322	     -1.93442585	      3.07835398	      0.46468163	      1.04501570	      0.32352990	     -2.92636815	      9.11251118	      0.95905274	     -7.16260201	      3.90765743	    -12.39092892	      4.56026490	     14.72737551	     -4.52892934	     -2.64724205	    -44.63354502	     10.02873803	      1.55401529	      2.59213858	     -9.24268880	      0.66357472	     -2.60804437
      1.12066667	      3.06539912	     -1.86691674	      2.93909632	      0.46923209	      1.04497133	      0.32400536	     -3.27745022	      9.06069440	      1.10202047	     -6.94956194	      4.00599823	    -12.34509037	      4.51214605	     15.07253514	     -4.40276410	     -2.61725067	    -43.61531816	     10.07568157	      1.22096106	      2.49479841	     -9.22718018	      0.52959999	     -2.51038657
      1.12483333	      3.04228395	     -1.81522201	      2.81770033	      0.47377905	      1.04493287	      0.32442167	     -3.65700933	      9.02360054	      1.23546975	     -6.71387264	      4.07918457	    -12.28313760	      4.41249121	     15.38969247	     -4.28420404	     -2.55266899	    -42.56939674	     10.06886767	      0.84929684	      2.30040427	     -9.23997860	      0.42886960	     -2.36723811
      1.12900000	      3.00353599	     -1.74942901	      2.66641927	      0.47833573	      1.04483505	      0.32489181	     -3.99852591	      8.96885599	      1.38517532	     -6.53246742	      4.21124362	    -12.24901130	      4.36515410	     15.70224541	     -4.16733647	     -2.54469253	    -41.48954321	     10.05538541	      0.53981492	      2.19583370	     -9.22080421	      0.29545502	     -2.30534480
      1.13316667	      2.96681314	     -1.69134478	      2.53069772	      0.48290526	      1.04471083	      0.32531115	     -4.35367028	      8.91921652	      1.53100421	     -6.32291310	      4.32098771	    -12.19464795	      4.31970385	     16.00694005	     -4.04988620	     -2.51088646	    -40.39053856	      9.99527656	      0.18839090	      2.09118417	     -9.21933967	      0.17354807	     -2.21532435
      1.13733333	      2.91625583	     -1.64932808	      2.39510254	      0.48746426	      1.04451904	      0.32572281	     -4.67551763	      8.88520014	      1.66879123	     -6.15080987	      4.43408804	    -12.15121478	      4.27131781	     16.31691668	     -3.94547648	     -2.45325243	    -39.26504694	      9.88890379	     -0.16884954	      1.97622836	     -9.18340144	      0.07878599	     -2.11921525
      1.14150000	      2.87897464	     -1.62214659	      2.28066621	      0.49202070	      1.04432370	      0.32606422	     -5.01963829	      8.86447602	      1.78618885	     -5.95469346	      4.52775591	    -12.07865075	      4.16590839	     16.60878995	     -3.84462137	     -2.35604910	    -38.12262930	      9.74248899	     -0.57206963	      1.74156691	     -9.17977262	      0.01943974	     -1.97865004
      1.14566667	      2.81439266	     -1.58868787	      2.12366065	      0.49659875	      1.04403701	      0.32649601	     -5.31240019	      8.83483260	      1.93923240	     -5.81743661	      4.68589082	    -12.04246658	      4.12025224	     16.91517504	     -3.76971586	     -2.36183247	    -36.96638833	      9.60271538	     -0.85471288	      1.62363179	     -9.12468663	     -0.07868605	     -1.92276548
      1.14983333	      2.75120520	     -1.57069863	      2.00686628	      0.50118545	      1.04372607	      0.32681521	     -5.61935171	      8.81861807	      2.05108831	     -5.64449897	      4.81464231	    -11.98069062	      4.05263602	     17.21805257	     -3.68367244	     -2.28174226	    -35.79172654	      9.39338969	     -1.25533586	      1.45548787	     -9.07521338	     -0.12106700	     -1.80158481
      1.15400000	      2.69908494	     -1.54565340	      1.84801646	      0.50576440	      1.04340862	      0.32721285	     -5.92071357	      8.79187206	      2.20726330	     -5.51598628	      4.96036272	    -11.91580171	      4.00886732	     17.49191710	     -3.61980297	     -2.29319791	    -34.59852222	      9.20959715	     -1.51911772	      1.33714393	     -9.06503102	     -0.20526843	     -1.73189059
      1.15816667	      2.65787317	     -1.53608632	      1.71156653	      0.51035715	      1.04307140	      0.32755174	     -6.23450619	      8.78104170	      2.33263788	     -5.38442877	      5.10688154	    -11.84546035	      3.95836583	     17.74563683	     -3.55656936	     -2.24554193	    -33.38279771	      8.96791782	     -1.86316854	      1.19979246	     -9.03053395	     -0.26259475	     -1.62457226
      1.16233333	      2.59821340	     -1.53940581	      1.59239541	      0.51496256	      1.04266472	      0.32783188	     -6.53073994	      8.78044548	      2.43230535	     -5.24352128	      5.25850542	    -11.75119946	      3.88158514	     18.02046834	     -3.49828686	     -2.17271606	    -32.16821495	      8.71882368	     -2.21977147	      1.00039884	     -8.98815401	     -0.27286877	     -1.48735126
      1.16650000	      2.52270279	     -1.53815224	      1.44662838	      0.51957477	      1.04220835	      0.32816469	     -6.79425758	      8.77248918	      2.55659248	     -5.14299403	      5.43310223	    -11.66165128	      3.80752990	     18.29896533	     -3.45348787	     -2.15647449	    -30.93770166	      8.46148292	     -2.50673871	      0.80286560	     -8.92603095	     -0.31403037	     -1.38121361
      1.17066667	      2.46805295	     -1.54250598	      1.30109510	      0.52419806	      1.04175771	      0.32848604	     -7.08065911	      8.76844567	      2.67718826	     -5.04255896	      5.60932185	    -11.56001943	      3.73353162	     18.54707040	     -3.41950276	     -2.15594815	    -29.69876330	      8.20111221	     -2.76238205	      0.60643974	     -8.89353529	     -0.34571765	     -1.27299989
      1.17483333	      2.39478618	     -1.55977763	      1.13455762	      0.52882519	      1.04123372	      0.32885507	     -7.33491805	      8.77710777	      2.82309612	     -4.97004819	      5.78431783	    -11.48997117	      3.69982723	     18.81776124	     -3.42453028	     -2.23960457	    -28.47643321	      7.97055726	     -2.86831219	      0.50453560	     -8.84069767	     -0.37974419	     -1.22009835
      1.17900000	      2.33924231	     -1.57532102	      1.00556635	      0.53347222	      1.04071861	      0.32910809	     -7.61634367	      8.78032576	      2.91495393	     -4.87863525	      5.97671234	    -11.36486699	      3.62592396	     19.04963049	     -3.38793855	     -2.18658910	    -27.21110291	      7.67108067	     -3.18744122	      0.30962823	     -8.79105311	     -0.38121790	     -1.05010232
      1.18316667	      2.28153627	     -1.59219213	      0.84827962	      0.53812671	      1.04017171	      0.32942582	     -7.88252394	      8.78308507	      3.02859055	     -4.82006967	      6.18706718	    -11.24264460	      3.55176674	     19.27958040	     -3.38215279	     -2.23642688	    -25.95461744	      7.40351130	     -3.35742411	      0.11898988	     -8.75029575	     -0.40001015	     -0.93219299
